<?xml version="1.0" encoding="UTF-8" standalone="no"?>
<svg
   xmlns:dc="http://purl.org/dc/elements/1.1/"
   xmlns:cc="http://creativecommons.org/ns#"
   xmlns:rdf="http://www.w3.org/1999/02/22-rdf-syntax-ns#"
   xmlns:svg="http://www.w3.org/2000/svg"
   xmlns="http://www.w3.org/2000/svg"
   xmlns:sodipodi="http://sodipodi.sourceforge.net/DTD/sodipodi-0.dtd"
   xmlns:inkscape="http://www.inkscape.org/namespaces/inkscape"
   width="205"
   height="22"
   viewBox="0 0 205 22"
   fill="none"
   version="1.1"
   id="svg6"
   sodipodi:docname="logo2.svg"
   inkscape:version="1.0 (6e3e5246a0, 2020-05-07)">
  <metadata
     id="metadata12">
    <rdf:RDF>
      <cc:Work
         rdf:about="">
        <dc:format>image/svg+xml</dc:format>
        <dc:type
           rdf:resource="http://purl.org/dc/dcmitype/StillImage" />
      </cc:Work>
    </rdf:RDF>
  </metadata>
  <defs
     id="defs10" />
  <sodipodi:namedview
     inkscape:guide-bbox="true"
     showguides="true"
     inkscape:document-rotation="0"
     pagecolor="#ffffff"
     bordercolor="#666666"
     borderopacity="1"
     objecttolerance="10"
     gridtolerance="10"
     guidetolerance="10"
     inkscape:pageopacity="0"
     inkscape:pageshadow="2"
     inkscape:window-width="1440"
     inkscape:window-height="836"
     id="namedview8"
     showgrid="false"
     inkscape:zoom="6.4926829"
     inkscape:cx="157.23466"
     inkscape:cy="11"
     inkscape:window-x="0"
     inkscape:window-y="27"
     inkscape:window-maximized="1"
     inkscape:current-layer="svg6" />
  <path
     d="M13.6722 13.716C13.8722 13.716 14.0402 13.788 14.1762 13.932L15.6042 15.456C14.9002 16.352 14.0242 17.032 12.9762 17.496C11.9362 17.96 10.6962 18.192 9.25619 18.192C7.95219 18.192 6.78019 17.972 5.74019 17.532C4.70019 17.084 3.81619 16.464 3.08819 15.672C2.36019 14.88 1.80019 13.94 1.40819 12.852C1.01619 11.764 0.820188 10.576 0.820188 9.288C0.820188 8.424 0.912188 7.604 1.09619 6.828C1.28819 6.044 1.56419 5.324 1.92419 4.668C2.28419 4.012 2.71619 3.42 3.22019 2.892C3.73219 2.364 4.30819 1.916 4.94819 1.548C5.58819 1.172 6.28419 0.887999 7.03619 0.696C7.79619 0.495999 8.60419 0.395998 9.46019 0.395998C10.1002 0.395998 10.7042 0.451999 11.2722 0.563999C11.8482 0.676 12.3842 0.832 12.8802 1.032C13.3762 1.232 13.8322 1.476 14.2482 1.764C14.6722 2.044 15.0522 2.352 15.3882 2.688L14.1762 4.344C14.1042 4.448 14.0122 4.54 13.9002 4.62C13.7882 4.7 13.6362 4.74 13.4442 4.74C13.2522 4.74 13.0562 4.672 12.8562 4.536C12.6642 4.4 12.4242 4.248 12.1362 4.08C11.8562 3.912 11.5002 3.76 11.0682 3.624C10.6442 3.488 10.1042 3.42 9.44819 3.42C8.72019 3.42 8.05219 3.552 7.44419 3.816C6.83619 4.08 6.31219 4.464 5.87219 4.968C5.44019 5.464 5.10419 6.076 4.86419 6.804C4.62419 7.532 4.50419 8.36 4.50419 9.288C4.50419 10.224 4.63219 11.06 4.88819 11.796C5.15219 12.524 5.50819 13.14 5.95619 13.644C6.41219 14.148 6.94019 14.532 7.54019 14.796C8.14819 15.052 8.79619 15.18 9.48419 15.18C9.89219 15.18 10.2602 15.16 10.5882 15.12C10.9242 15.08 11.2322 15.012 11.5122 14.916C11.8002 14.82 12.0682 14.696 12.3162 14.544C12.5722 14.392 12.8282 14.2 13.0842 13.968C13.1722 13.896 13.2642 13.836 13.3602 13.788C13.4562 13.74 13.5602 13.716 13.6722 13.716ZM29.7027 5.436C30.6307 5.436 31.4747 5.584 32.2347 5.88C32.9947 6.176 33.6467 6.6 34.1907 7.152C34.7347 7.696 35.1547 8.36 35.4507 9.144C35.7467 9.928 35.8947 10.812 35.8947 11.796C35.8947 12.78 35.7467 13.668 35.4507 14.46C35.1547 15.244 34.7347 15.912 34.1907 16.464C33.6467 17.016 32.9947 17.44 32.2347 17.736C31.4747 18.032 30.6307 18.18 29.7027 18.18C28.7667 18.18 27.9147 18.032 27.1467 17.736C26.3867 17.44 25.7347 17.016 25.1907 16.464C24.6467 15.912 24.2227 15.244 23.9187 14.46C23.6227 13.668 23.4747 12.78 23.4747 11.796C23.4747 10.812 23.6227 9.928 23.9187 9.144C24.2227 8.36 24.6467 7.696 25.1907 7.152C25.7347 6.6 26.3867 6.176 27.1467 5.88C27.9147 5.584 28.7667 5.436 29.7027 5.436ZM29.7027 15.696C30.6467 15.696 31.3467 15.372 31.8027 14.724C32.2587 14.068 32.4867 13.096 32.4867 11.808C32.4867 10.528 32.2587 9.564 31.8027 8.916C31.3467 8.26 30.6467 7.932 29.7027 7.932C28.7347 7.932 28.0227 8.26 27.5667 8.916C27.1107 9.564 26.8827 10.528 26.8827 11.808C26.8827 13.096 27.1107 14.068 27.5667 14.724C28.0227 15.372 28.7347 15.696 29.7027 15.696ZM45.1743 18V5.628H47.2143C47.6303 5.628 47.9063 5.82 48.0423 6.204L48.2343 7.008C48.4503 6.784 48.6703 6.576 48.8943 6.384C49.1263 6.192 49.3743 6.028 49.6383 5.892C49.9023 5.748 50.1863 5.636 50.4903 5.556C50.8023 5.476 51.1383 5.436 51.4983 5.436C52.2583 5.436 52.8863 5.64 53.3823 6.048C53.8783 6.448 54.2543 6.984 54.5103 7.656C54.7103 7.264 54.9543 6.928 55.2423 6.648C55.5383 6.36 55.8583 6.128 56.2023 5.952C56.5543 5.776 56.9223 5.648 57.3063 5.568C57.6983 5.48 58.0903 5.436 58.4823 5.436C59.1783 5.436 59.7943 5.54 60.3303 5.748C60.8663 5.956 61.3143 6.264 61.6743 6.672C62.0423 7.072 62.3223 7.564 62.5143 8.148C62.7063 8.732 62.8023 9.396 62.8023 10.14V18H59.4903V10.14C59.4903 8.692 58.8703 7.968 57.6303 7.968C57.3503 7.968 57.0903 8.016 56.8503 8.112C56.6183 8.2 56.4103 8.336 56.2263 8.52C56.0503 8.704 55.9103 8.932 55.8063 9.204C55.7103 9.476 55.6623 9.788 55.6623 10.14V18H52.3503V10.14C52.3503 9.356 52.1943 8.8 51.8823 8.472C51.5783 8.136 51.1263 7.968 50.5263 7.968C50.1423 7.968 49.7783 8.06 49.4343 8.244C49.0983 8.42 48.7823 8.668 48.4863 8.988V18H45.1743ZM73.2899 18V8.004L72.3299 7.836C72.0819 7.788 71.8779 7.7 71.7179 7.572C71.5659 7.444 71.4899 7.26 71.4899 7.02V5.7H73.2899V4.884C73.2899 4.18 73.3979 3.544 73.6139 2.976C73.8379 2.4 74.1539 1.916 74.5619 1.524C74.9699 1.124 75.4699 0.815999 76.0619 0.599999C76.6539 0.383999 77.3219 0.275999 78.0659 0.275999C78.3539 0.275999 78.6259 0.295999 78.8819 0.335999C79.1459 0.367999 79.4099 0.419999 79.6739 0.491999L79.6019 2.124C79.5859 2.372 79.4779 2.536 79.2779 2.616C79.0859 2.688 78.8699 2.724 78.6299 2.724C78.2939 2.724 77.9899 2.76 77.7179 2.832C77.4539 2.904 77.2299 3.028 77.0459 3.204C76.8619 3.372 76.7219 3.604 76.6259 3.9C76.5299 4.188 76.4819 4.548 76.4819 4.98V5.7H79.5539V8.004H76.5899V18H73.2899ZM99.7572 5.628L93.0852 21.324C92.9812 21.548 92.8532 21.716 92.7012 21.828C92.5572 21.94 92.3252 21.996 92.0052 21.996H89.5452L91.8852 17.004L86.9172 5.628H89.8212C90.0852 5.628 90.2892 5.688 90.4332 5.808C90.5772 5.928 90.6812 6.068 90.7452 6.228L93.0972 12.144C93.1852 12.376 93.2612 12.612 93.3252 12.852C93.3972 13.084 93.4652 13.316 93.5292 13.548C93.6732 13.076 93.8372 12.604 94.0212 12.132L96.2052 6.228C96.2692 6.052 96.3852 5.908 96.5532 5.796C96.7212 5.684 96.9052 5.628 97.1052 5.628H99.7572Z"
     fill="#222222"
     id="path2"
     style="fill:#e4eee4;fill-opacity:0.74000001" />
  <g
     style="font-style:normal;font-variant:normal;font-weight:normal;font-stretch:normal;font-size:29.0879px;line-height:1.25;font-family:Kinnari;-inkscape-font-specification:'Kinnari, Normal';font-variant-ligatures:normal;font-variant-caps:normal;font-variant-numeric:normal;font-variant-east-asian:normal;letter-spacing:2.86473px;fill:#daa520;fill-opacity:1;stroke:none;stroke-width:0.727196"
     id="text833"
     transform="scale(1.1397218,0.87740709)"
     aria-label="Home">
    <path
       d="m 114.88737,20.425816 c -2.69548,0 -5.39095,0 -8.08643,0 0.65133,-0.90529 3.42849,-1.253906 2.58882,-3.601017 0,-1.882978 0,-3.765957 0,-5.648936 -2.93788,0 -5.87575,0 -8.81363,0 0.0968,2.556054 -0.20008,5.166212 0.15998,7.686478 0.85184,0.947934 3.95974,1.544621 1.12577,1.563475 -2.270821,0 -4.541638,0 -6.812455,0 0.65069,-0.902231 3.393594,-1.269345 2.559735,-3.601017 -0.02667,-4.578413 0.05334,-9.1620285 -0.04,-13.7371899 -0.480704,-1.4260448 -4.426672,-1.8750488 -1.151017,-1.9179834 2.239239,0 4.478483,0 6.717713,0 -0.65069,0.9022308 -3.393584,1.2693476 -2.55973,3.6010166 0,1.737539 0,3.4750781 0,5.2126171 2.93788,0 5.87576,0 8.81363,0 -0.0922,-2.411231 0.19424,-4.8751928 -0.1618,-7.2501591 -0.85301,-0.9482552 -4.00056,-1.5400456 -1.15303,-1.5634746 2.27081,0 4.54163,0 6.81244,0 -0.65069,0.9022308 -3.39358,1.2693476 -2.55973,3.6010166 0.0267,4.578413 -0.0533,9.1620287 0.04,13.7371907 0.0138,1.710624 2.7921,0.682937 2.51973,1.917983 z"
       style="font-style:normal;font-variant:normal;font-weight:normal;font-stretch:normal;font-size:29.0879px;font-family:Kinnari;-inkscape-font-specification:'Kinnari, Normal';font-variant-ligatures:normal;font-variant-caps:normal;font-variant-numeric:normal;font-variant-east-asian:normal;fill:#daa520;fill-opacity:1;stroke-width:0.727196"
       id="path846" />
    <path
       d="m 131.96745,13.502895 c 0.26388,4.120613 -3.57642,8.196908 -7.82283,7.119263 -5.98625,-1.137279 -6.67275,-10.599838 -1.29623,-13.0168344 4.14332,-1.8107687 9.39743,1.1285959 9.11906,5.8975714 z m -2.67608,1.39622 c 0.24317,-3.085685 -1.68902,-8.1850393 -5.58488,-6.5738659 -2.6255,1.8628819 -1.9029,5.7197739 -1.24351,8.3882239 0.3834,3.569224 5.85371,4.32059 6.49888,0.528581 0.23688,-0.756479 0.32948,-1.552188 0.32951,-2.342939 z"
       style="font-style:normal;font-variant:normal;font-weight:normal;font-stretch:normal;font-size:29.0879px;font-family:Kinnari;-inkscape-font-specification:'Kinnari, Normal';font-variant-ligatures:normal;font-variant-caps:normal;font-variant-numeric:normal;font-variant-east-asian:normal;fill:#daa520;fill-opacity:1;stroke-width:0.727196"
       id="path848" />
    <path
       d="m 140.44751,9.2851498 c 1.82941,-2.2869619 6.47774,-3.3968514 7.38833,0.290879 1.76889,-2.8114947 7.3856,-3.7520496 7.97372,0.4254102 0.44244,2.953537 -3.5e-4,5.968028 0.30181,8.92635 1.94478,1.331622 2.0888,1.644623 -0.27126,1.498027 -1.36882,0 -2.73765,0 -4.10647,0 1.28136,-0.64924 2.22523,-2.274721 1.83253,-4.14701 -0.12711,-2.289217 0.34344,-4.692488 -0.4654,-6.8773046 -1.59288,-1.7534855 -5.52496,-0.2273809 -4.94495,2.2920616 0.0586,2.409312 -0.12303,4.838478 0.10181,7.234226 1.94478,1.331621 2.08882,1.644622 -0.27125,1.498027 -1.36882,0 -2.73765,0 -4.10648,0 1.28136,-0.649236 2.22524,-2.274716 1.83254,-4.14701 -0.13755,-2.315052 0.37883,-4.761888 -0.53088,-6.9500244 -1.64801,-1.605212 -5.51384,-2.461e-4 -4.8504,2.4886024 0.0568,2.368178 -0.12049,4.755729 0.10181,7.110405 1.94478,1.331621 2.08882,1.644622 -0.27125,1.498027 -1.36882,0 -2.73765,0 -4.10648,0 1.28136,-0.64924 2.22523,-2.274721 1.83253,-4.14701 -0.1366,-2.267434 0.3255,-4.649239 -0.34905,-6.8191288 -2.82727,-0.361076 -0.669,-1.28778 0.74705,-1.6325794 1.06722,-0.3616917 2.53901,-1.2956282 2.04539,0.5504441 0.0561,0.2764899 -0.11892,0.7078977 0.11635,0.9076079 z"
       style="font-style:normal;font-variant:normal;font-weight:normal;font-stretch:normal;font-size:29.0879px;font-family:Kinnari;-inkscape-font-specification:'Kinnari, Normal';font-variant-ligatures:normal;font-variant-caps:normal;font-variant-numeric:normal;font-variant-east-asian:normal;fill:#daa520;fill-opacity:1;stroke-width:0.727196"
       id="path850" />
    <path
       d="m 173.37004,15.829927 c -0.98776,3.57084 -5.34716,6.340916 -8.78137,4.165933 -4.38666,-2.979748 -3.58658,-11.4635198 1.84936,-12.7686791 3.1762,-1.0682841 6.89775,2.2318101 6.19734,5.1703741 -2.95478,0 -5.90956,0 -8.86434,0 -0.0921,2.988059 1.87372,6.872534 5.36853,6.31571 2.05393,0.177019 2.86284,-2.881547 4.23048,-2.883338 z M 169.8504,11.49583 c 0.68171,-4.920925 -7.17172,-3.4748865 -5.62811,0 1.87603,0 3.75207,0 5.62811,0 z"
       style="font-style:normal;font-variant:normal;font-weight:normal;font-stretch:normal;font-size:29.0879px;font-family:Kinnari;-inkscape-font-specification:'Kinnari, Normal';font-variant-ligatures:normal;font-variant-caps:normal;font-variant-numeric:normal;font-variant-east-asian:normal;fill:#daa520;fill-opacity:1;stroke-width:0.727196"
       id="path852" />
  </g>
</svg>
